{"accessors":[{"bufferView":2,"componentType":5126,"count":384,"max":[3.132105827331543,3.1307668685913086,1.5643876791000366],"min":[0,0,0],"type":"VEC3"},{"bufferView":2,"byteOffset":4608,"componentType":5126,"count":384,"max":[1,1,1],"min":[-1,-1,-1],"type":"VEC3"},{"bufferView":3,"componentType":5126,"count":384,"max":[1,1,0.6806829571723938,1],"min":[-1,-1,-0.6806828379631042,-1],"type":"VEC4"},{"bufferView":1,"componentType":5126,"count":384,"max":[0.8359375,1],"min":[0,0.2734375],"type":"VEC2"},{"bufferView":0,"componentType":5125,"count":576,"max":[383],"min":[0],"type":"SCALAR"}],"asset":{"extras":{"author":"StuffBySpencer (https://sketchfab.com/StuffBySpencer)","license":"CC-BY-4.0 (http://creativecommons.org/licenses/by/4.0/)","source":"https://sketchfab.com/models/d119216a14ab499dadfc2a0786ee9b6a","title":"Totally Spooky TombStone"},"generator":"Sketchfab-3.19.6","version":"2.0"},"bufferViews":[{"buffer":0,"byteLength":2304,"byteOffset":0,"name":"floatBufferViews","target":34963},{"buffer":0,"byteLength":3072,"byteOffset":2304,"byteStride":8,"name":"floatBufferViews","target":34962},{"buffer":0,"byteLength":9216,"byteOffset":5376,"byteStride":12,"name":"floatBufferViews","target":34962},{"buffer":0,"byteLength":6144,"byteOffset":14592,"byteStride":16,"name":"floatBufferViews","target":34962}],"buffers":[{"byteLength":20736,"uri":"data:application/octet-stream;base64,"}],"extensionsUsed":["KHR_materials_unlit"],"images":[{"uri":"data:application/octet-stream;base64,"}],"materials":[{"doubleSided":true,"extensions":{"KHR_materials_unlit":{}},"name":"material_0","pbrMetallicRoughness":{"baseColorFactor":[1,1,1,1],"baseColorTexture":{"index":0,"texCoord":0},"metallicFactor":0,"roughnessFactor":1}}],"meshes":[{"primitives":[{"attributes":{"NORMAL":1,"POSITION":0,"TANGENT":2,"TEXCOORD_0":3},"indices":4,"material":0,"mode":4}]}],"nodes":[{"children":[1],"name":"RootNode (gltf orientation matrix)","rotation":[-0.7071067811865475,0,0,0.7071067811865476]},{"children":[2],"name":"RootNode (model correction matrix)"},{"children":[3],"matrix":[1,0,0,0,0,1,0,0,0,0,1,0,-1.5666619539260864,-1.5682669878005981,-0.06183062866330147,1],"name":"160e8d98595f45159dda20f0bb1fbfb4.obj.cleaner.gles"},{"mesh":0,"name":""}],"samplers":[{"magFilter":9728,"minFilter":9728,"wrapS":33071,"wrapT":33071}],"scene":0,"scenes":[{"name":"OSG_Scene","nodes":[0]}],"textures":[{"sampler":0,"source":0}]}